<svg width="40" height="40" viewBox="0 0 40 40" fill="none" xmlns="http://www.w3.org/2000/svg">
<path d="M25 28.3335V30.0002C25 32.7616 22.7614 35.0002 20 35.0002C17.2386 35.0002 15 32.7616 15 30.0002V28.3337M25 28.3335L15 28.3337M25 28.3335H31.6667C32.5872 28.3335 33.3334 27.5873 33.3334 26.6668V25.6903C33.3334 25.2483 33.1576 24.8245 32.8451 24.5119L31.9938 23.6606C31.7843 23.4511 31.6667 23.1668 31.6667 22.8704V16.6668C31.6667 16.3728 31.6561 16.0811 31.6341 15.7937M15 28.3337L8.33335 28.3337C7.41289 28.3337 6.66669 27.587 6.66669 26.6665V25.6903C6.66669 25.2483 6.84242 24.825 7.15497 24.5123L8.00621 23.6599C8.21567 23.4504 8.33335 23.1672 8.33335 22.8709V16.6668C8.33335 10.2235 13.5567 5.00016 20 5.00016C21.186 5.00016 22.3307 5.17713 23.4091 5.50611M31.6341 15.7937C33.6447 14.6457 35 12.4812 35 10.0002C35 6.31826 32.0153 3.3335 28.3334 3.3335C26.383 3.3335 24.6282 4.17105 23.4091 5.50611M31.6341 15.7937C30.661 16.3493 29.5342 16.6668 28.3334 16.6668C24.6515 16.6668 21.6667 13.6821 21.6667 10.0002C21.6667 8.26866 22.3268 6.69134 23.4091 5.50611M31.6341 15.7937C31.6341 15.7936 31.6341 15.7937 31.6341 15.7937ZM23.4091 5.50611C23.4099 5.50635 23.4106 5.50659 23.4114 5.50682" stroke="#05081A" stroke-width="2" stroke-linecap="round" stroke-linejoin="round"/>
</svg>
